<?xml version="1.0" encoding="UTF-8"?>
<!DOCTYPE svg PUBLIC "-//W3C//DTD SVG 1.1//EN" "http://www.w3.org/Graphics/SVG/1.1/DTD/svg11.dtd">
<!-- Creator: CorelDRAW -->
<svg xmlns="http://www.w3.org/2000/svg" xml:space="preserve" width="51.6898mm" height="51.78mm" version="1.1" style="shape-rendering:geometricPrecision; text-rendering:geometricPrecision; image-rendering:optimizeQuality; fill-rule:evenodd; clip-rule:evenodd"
viewBox="0 0 5168.98 5178"
 xmlns:xlink="http://www.w3.org/1999/xlink"
 xmlns:xodm="http://www.corel.com/coreldraw/odm/2003">
 <defs>
  <style type="text/css">
   <![CDATA[
    .fil0 {fill:#FFCC29}
   ]]>
  </style>
 </defs>
 <g id="Capa_x0020_1">
  <metadata id="CorelCorpID_0Corel-Layer"/>
  <g id="_2035093832048">
   <path class="fil0" d="M1422.03 -0.11l2324.92 0c782.02,0 1421.84,639.82 1421.84,1421.84l0 2334.54c0,782.02 -639.82,1421.84 -1421.84,1421.84l-2324.92 0c-782.02,0 -1421.84,-639.82 -1421.84,-1421.84l0 -2334.54c0,-782.02 639.82,-1421.84 1421.84,-1421.84zm0 454l2324.92 0c532.32,0 967.84,435.52 967.84,967.84l0 2334.54c0,532.32 -435.52,967.84 -967.84,967.84l-2324.92 0c-532.32,0 -967.84,-435.52 -967.84,-967.84l0 -2334.54c0,-532.32 435.52,-967.84 967.84,-967.84z"/>
   <g>
    <polygon class="fil0" points="2037.36,923.79 3131.63,923.79 2973.79,3342.95 2195.2,3342.95 "/>
    <rect class="fil0" x="2187.48" y="3560.4" width="794.01" height="693.81" rx="49.52" ry="145.3"/>
   </g>
  </g>
 </g>
</svg>
