<?xml version="1.0" encoding="UTF-8"?>
<!DOCTYPE svg PUBLIC "-//W3C//DTD SVG 1.1//EN" "http://www.w3.org/Graphics/SVG/1.1/DTD/svg11.dtd">
<!-- Creator: CorelDRAW -->
<svg xmlns="http://www.w3.org/2000/svg" xml:space="preserve" width="51.6898mm" height="51.78mm" version="1.1" style="shape-rendering:geometricPrecision; text-rendering:geometricPrecision; image-rendering:optimizeQuality; fill-rule:evenodd; clip-rule:evenodd"
viewBox="0 0 5168.98 5178"
 xmlns:xlink="http://www.w3.org/1999/xlink"
 xmlns:xodm="http://www.corel.com/coreldraw/odm/2003">
 <defs>
  <style type="text/css">
   <![CDATA[
    .fil0 {fill:#ED3237}
   ]]>
  </style>
 </defs>
 <g id="Capa_x0020_1">
  <metadata id="CorelCorpID_0Corel-Layer"/>
  <g id="_1999457984320">
   <path class="fil0" d="M3740.65 1.69l-2324.92 0c-212.15,0 -413.79,47.17 -595.08,131.41l0.56 0.29c-83.78,33.46 -140.31,112.75 -144.62,202.86 -4.32,90.11 44.37,174.45 124.56,215.76 49.04,25.27 104.34,31.59 156.11,19.94 29.67,-16.08 60.27,-30.62 91.68,-43.59l0.21 -0.16 0.06 0.05c113.19,-46.71 236.97,-72.56 366.52,-72.56l2324.92 0c532.32,0 967.84,435.52 967.84,967.84l0 2334.54c0,532.32 -435.52,967.84 -967.84,967.84l-2324.92 0c-532.32,0 -967.84,-435.52 -967.84,-967.84l0 -1445.78c-27.37,-102.9 -120.53,-174.51 -227,-174.51 -106.47,0 -199.63,71.61 -227,174.51l0 1445.78c0,782.02 639.82,1421.84 1421.84,1421.84l2324.92 0c782.02,0 1421.84,-639.82 1421.84,-1421.84l0 -2334.54c0,-782.02 -639.82,-1421.84 -1421.84,-1421.84z"/>
   <polygon class="fil0" points="3581.65,1142.67 4026.32,1587.34 3022.86,2590.8 4026.32,3594.26 3581.65,4038.93 2578.19,3035.47 1574.73,4038.93 1130.06,3594.26 2133.52,2590.8 1130.06,1587.34 1574.73,1142.67 2578.19,2146.13 "/>
  </g>
 </g>
</svg>
