<?xml version="1.0" encoding="UTF-8"?>
<!DOCTYPE svg PUBLIC "-//W3C//DTD SVG 1.1//EN" "http://www.w3.org/Graphics/SVG/1.1/DTD/svg11.dtd">
<!-- Creator: CorelDRAW -->
<svg xmlns="http://www.w3.org/2000/svg" xml:space="preserve" width="51.76mm" height="51.78mm" version="1.1" style="shape-rendering:geometricPrecision; text-rendering:geometricPrecision; image-rendering:optimizeQuality; fill-rule:evenodd; clip-rule:evenodd"
viewBox="0 0 5176 5178"
 xmlns:xlink="http://www.w3.org/1999/xlink"
 xmlns:xodm="http://www.corel.com/coreldraw/odm/2003">
 <defs>
  <style type="text/css">
   <![CDATA[
    .fil0 {fill:#65BC50}
   ]]>
  </style>
 </defs>
 <g id="Capa_x0020_1">
  <metadata id="CorelCorpID_0Corel-Layer"/>
  <g id="_2036003487472">
   <path class="fil0" d="M1422.04 -0.11l2324.92 0c212.15,0 413.79,47.17 595.08,131.41l-0.56 0.29c83.78,33.46 140.31,112.75 144.62,202.86 4.32,90.11 -44.37,174.45 -124.56,215.76 -49.04,25.27 -104.34,31.59 -156.11,19.94 -29.67,-16.08 -60.27,-30.62 -91.68,-43.59l-0.21 -0.16 -0.06 0.05c-113.19,-46.71 -236.97,-72.56 -366.52,-72.56l-2324.92 0c-532.32,0 -967.84,435.52 -967.84,967.84l0 2334.54c0,532.32 435.52,967.84 967.84,967.84l2324.92 0c532.32,0 967.84,-435.52 967.84,-967.84l0 -1445.78c27.37,-102.9 120.53,-174.51 227,-174.51 106.47,0 199.63,71.61 227,174.51l0 1445.78c0,782.02 -639.82,1421.84 -1421.84,1421.84l-2324.92 0c-782.02,0 -1421.84,-639.82 -1421.84,-1421.84l0 -2334.54c0,-782.02 639.82,-1421.84 1421.84,-1421.84z"/>
   <path class="fil0" d="M929.36 2349.85c-28.89,48.13 -16.99,96.73 35.72,145.79 0,0 467.37,531.79 1402.1,1595.38 14.32,14.4 33.79,22.49 54.1,22.49 20.3,0 39.77,-8.09 54.09,-22.49 0,0 488.48,-624.22 2642.07,-2919.15 51.46,-41.83 71.33,-111.35 49.74,-174.06 0,0 -53.88,-77.51 -161.63,-232.52 -32.67,-31.77 -84.7,-31.77 -117.37,0 0,0 -387.85,307.33 -2340.18,1968.49 -78.8,69.49 -196.98,69.49 -275.78,0 0,0 -258.96,-221.11 -776.87,-663.32 -61.32,-60.76 -151.85,-81.38 -233.43,-53.17l-332.56 332.56z"/>
  </g>
 </g>
</svg>
